<svg xmlns="http://www.w3.org/2000/svg"  viewBox="0 0 64 64" width="128px" height="128px"><linearGradient id="uuYPNIbl2M5X8aYUd_HT8a" x1="32" x2="32" y1="736.083" y2="781.676" gradientTransform="translate(0 -726)" gradientUnits="userSpaceOnUse"><stop offset="0" stop-color="#1a6dff"/><stop offset="1" stop-color="#c822ff"/></linearGradient><path fill="url(#uuYPNIbl2M5X8aYUd_HT8a)" d="M50,56H14c-2.757,0-5-2.243-5-5V15c0-2.757,2.243-5,5-5h36c2.757,0,5,2.243,5,5v36	C55,53.757,52.757,56,50,56z M14,12c-1.654,0-3,1.346-3,3v36c0,1.654,1.346,3,3,3h36c1.654,0,3-1.346,3-3V15c0-1.654-1.346-3-3-3H14	z"/><linearGradient id="uuYPNIbl2M5X8aYUd_HT8b" x1="32" x2="32" y1="18" y2="47.215" gradientUnits="userSpaceOnUse"><stop offset="0" stop-color="#6dc7ff"/><stop offset="1" stop-color="#e6abff"/></linearGradient><path fill="url(#uuYPNIbl2M5X8aYUd_HT8b)" d="M32,18c-9.389,0-17,6.268-17,14c0,4.859,3.008,9.136,7.571,11.647	c-0.247,0.777-0.575,1.478-0.915,2.079c-0.469,0.831,0.393,1.787,1.266,1.402c1.449-0.639,2.93-1.463,3.641-1.872	C28.271,45.731,30.096,46,32,46c9.389,0,17-6.268,17-14S41.389,18,32,18z"/></svg>